%TF.GenerationSoftware,KiCad,Pcbnew,7.0.5+dfsg-2*%
%TF.CreationDate,2023-06-23T06:34:26+00:00*%
%TF.ProjectId,N5x5_D100_B150_SQcenter-corner,4e357835-5f44-4313-9030-5f423135305f,rev?*%
%TF.SameCoordinates,Original*%
%TF.FileFunction,Profile,NP*%
%FSLAX46Y46*%
G04 Gerber Fmt 4.6, Leading zero omitted, Abs format (unit mm)*
G04 Created by KiCad (PCBNEW 7.0.5+dfsg-2) date 2023-06-23 06:34:26*
%MOMM*%
%LPD*%
G01*
G04 APERTURE LIST*
%TA.AperFunction,Profile*%
%ADD10C,0.100000*%
%TD*%
G04 APERTURE END LIST*
D10*
X137705000Y-94205000D02*
X140245000Y-94205000D01*
X140245000Y-96745000D01*
X137705000Y-96745000D01*
X137705000Y-94205000D01*
X137705000Y-98015000D02*
X140245000Y-98015000D01*
X140245000Y-100555000D01*
X137705000Y-100555000D01*
X137705000Y-98015000D01*
X137705000Y-101825000D02*
X140245000Y-101825000D01*
X140245000Y-104365000D01*
X137705000Y-104365000D01*
X137705000Y-101825000D01*
X137705000Y-105635000D02*
X140245000Y-105635000D01*
X140245000Y-108175000D01*
X137705000Y-108175000D01*
X137705000Y-105635000D01*
X137705000Y-109445000D02*
X140245000Y-109445000D01*
X140245000Y-111985000D01*
X137705000Y-111985000D01*
X137705000Y-109445000D01*
X141515000Y-94205000D02*
X144055000Y-94205000D01*
X144055000Y-96745000D01*
X141515000Y-96745000D01*
X141515000Y-94205000D01*
X144055000Y-99285000D02*
G75*
G03*
X144055000Y-99285000I-1270000J0D01*
G01*
X144055000Y-103095000D02*
G75*
G03*
X144055000Y-103095000I-1270000J0D01*
G01*
X144055000Y-106905000D02*
G75*
G03*
X144055000Y-106905000I-1270000J0D01*
G01*
X141515000Y-109445000D02*
X144055000Y-109445000D01*
X144055000Y-111985000D01*
X141515000Y-111985000D01*
X141515000Y-109445000D01*
X145325000Y-94205000D02*
X147865000Y-94205000D01*
X147865000Y-96745000D01*
X145325000Y-96745000D01*
X145325000Y-94205000D01*
X147865000Y-99285000D02*
G75*
G03*
X147865000Y-99285000I-1270000J0D01*
G01*
X148391051Y-103095000D02*
X146595000Y-104891051D01*
X144798949Y-103095000D01*
X146595000Y-101298949D01*
X148391051Y-103095000D01*
X147865000Y-106905000D02*
G75*
G03*
X147865000Y-106905000I-1270000J0D01*
G01*
X145325000Y-109445000D02*
X147865000Y-109445000D01*
X147865000Y-111985000D01*
X145325000Y-111985000D01*
X145325000Y-109445000D01*
X149135000Y-94205000D02*
X151675000Y-94205000D01*
X151675000Y-96745000D01*
X149135000Y-96745000D01*
X149135000Y-94205000D01*
X151675000Y-99285000D02*
G75*
G03*
X151675000Y-99285000I-1270000J0D01*
G01*
X151675000Y-103095000D02*
G75*
G03*
X151675000Y-103095000I-1270000J0D01*
G01*
X151675000Y-106905000D02*
G75*
G03*
X151675000Y-106905000I-1270000J0D01*
G01*
X149135000Y-109445000D02*
X151675000Y-109445000D01*
X151675000Y-111985000D01*
X149135000Y-111985000D01*
X149135000Y-109445000D01*
X152945000Y-94205000D02*
X155485000Y-94205000D01*
X155485000Y-96745000D01*
X152945000Y-96745000D01*
X152945000Y-94205000D01*
X152945000Y-98015000D02*
X155485000Y-98015000D01*
X155485000Y-100555000D01*
X152945000Y-100555000D01*
X152945000Y-98015000D01*
X152945000Y-101825000D02*
X155485000Y-101825000D01*
X155485000Y-104365000D01*
X152945000Y-104365000D01*
X152945000Y-101825000D01*
X152945000Y-105635000D02*
X155485000Y-105635000D01*
X155485000Y-108175000D01*
X152945000Y-108175000D01*
X152945000Y-105635000D01*
X152945000Y-109445000D02*
X155485000Y-109445000D01*
X155485000Y-111985000D01*
X152945000Y-111985000D01*
X152945000Y-109445000D01*
X123500000Y-129000000D02*
X123500000Y-81000000D01*
X124500000Y-80000000D02*
G75*
G03*
X123500000Y-81000000I0J-1000000D01*
G01*
X124500000Y-80000000D02*
X172500000Y-80000000D01*
X173500000Y-81000000D02*
G75*
G03*
X172500000Y-80000000I-1000000J0D01*
G01*
X173500000Y-81000000D02*
X173500000Y-129000000D01*
X172500000Y-130000000D02*
G75*
G03*
X173500000Y-129000000I0J1000000D01*
G01*
X172500000Y-130000000D02*
X124500000Y-130000000D01*
X123500000Y-129000000D02*
G75*
G03*
X124500000Y-130000000I1000000J0D01*
G01*
M02*
